<?xml version="1.0" encoding="UTF-8"?><svg id="_Слой_2" xmlns="http://www.w3.org/2000/svg" width="101.98" height="99.7" viewBox="0 0 101.98 99.7"><defs><style>.cls-1{fill:#4a9dcf;stroke-width:0px;}</style></defs><g id="label_gollow_up_boss"><g id="label_gollow_up_boss-2"><path class="cls-1" d="M98.76,87.7l-45.58-26.27c-1.35-.78-3.02-.78-4.38,0L3.24,87.67c-3.08,1.77-4.15,5.7-2.39,8.79h0c1.75,3.08,5.66,4.14,8.72,2.38l39.33-22.65c1.28-.74,2.86-.74,4.14,0l39.35,22.66c3.06,1.76,6.98.7,8.72-2.38l.02-.04c1.74-3.07.68-6.97-2.38-8.73Z"/><path class="cls-1" d="M98.76,26.86L53.18.59c-1.35-.78-3.02-.78-4.38,0L3.24,26.82c-3.08,1.77-4.15,5.7-2.39,8.79h0c1.75,3.08,5.66,4.14,8.72,2.38L48.9,15.34c1.28-.74,2.86-.74,4.14,0l39.35,22.66c3.06,1.76,6.98.7,8.72-2.38l.02-.04c1.74-3.07.68-6.97-2.38-8.73Z"/><path class="cls-1" d="M98.76,57.46l-45.58-26.27c-1.35-.78-3.02-.78-4.38,0L3.24,57.42c-3.08,1.77-4.15,5.7-2.39,8.79h0c1.75,3.08,5.66,4.14,8.72,2.38l39.33-22.65c1.28-.74,2.86-.74,4.14,0l39.35,22.66c3.06,1.76,6.98.7,8.72-2.38l.02-.04c1.74-3.07.68-6.97-2.38-8.73Z"/></g></g></svg>