<?xml version="1.0" encoding="utf-8"?>
<!-- Generator: Adobe Illustrator 28.2.0, SVG Export Plug-In . SVG Version: 6.00 Build 0)  -->
<svg version="1.1" id="Слой_1" xmlns="http://www.w3.org/2000/svg" xmlns:xlink="http://www.w3.org/1999/xlink" x="0px" y="0px"
	 viewBox="0 0 1440 102" style="enable-background:new 0 0 1440 102;" xml:space="preserve">
<g>
	<path d="M1432.9,101.5c-42.7,0-63.9-23.3-84.4-45.9c-19.3-21.2-37.5-41.2-74-41.2c-36.5,0-54.7,20-74,41.2
		c-20.5,22.6-41.7,45.9-84.4,45.9c-42.7,0-63.9-23.3-84.4-45.9c-19.3-21.2-37.5-41.2-74-41.2c-36.5,0-54.7,20-74,41.2
		c-20.5,22.6-41.7,45.9-84.4,45.9c-42.7,0-63.9-23.3-84.4-45.9c-19.3-21.2-37.5-41.2-74-41.2c-36.5,0-54.7,20-74,41.2
		c-20.5,22.6-41.7,45.9-84.4,45.9c-42.7,0-63.9-23.3-84.4-45.9c-19.3-21.2-37.5-41.2-74-41.2c-36.5,0-54.7,20-74,41.2
		c-20.5,22.6-41.8,45.9-84.6,45.9c-42.7,0-63.9-23.3-84.4-45.8C61.9,34.4,43.7,14.3,7.1,14.3C3.2,14.3,0,11.1,0,7.2
		C0,3.2,3.2,0,7.1,0c42.8,0,64,23.3,84.6,45.9c19.3,21.2,37.5,41.2,74,41.2c36.6,0,54.8-20.1,74.2-41.3C260.3,23.3,281.5,0,324.2,0
		c42.7,0,63.9,23.3,84.4,45.9c19.3,21.2,37.5,41.2,74,41.2s54.7-20,74-41.2C577.1,23.3,598.3,0,641,0c42.7,0,63.9,23.3,84.4,45.9
		c19.3,21.2,37.5,41.2,74,41.2c36.5,0,54.7-20,74-41.2C893.8,23.3,915,0,957.8,0c42.7,0,63.9,23.3,84.4,45.9
		c19.3,21.2,37.5,41.3,74,41.3c36.5,0,54.7-20,74-41.2c20.5-22.6,41.7-45.9,84.4-45.9c42.7,0,63.9,23.3,84.4,45.9
		c19.3,21.2,37.5,41.2,74,41.2c3.9,0,7.1,3.2,7.1,7.1S1436.8,101.5,1432.9,101.5z"/>
</g>
</svg>
