<?xml version="1.0" encoding="UTF-8"?>
<svg id="_Слой_1" data-name="Слой 1" xmlns="http://www.w3.org/2000/svg" viewBox="0 0 1440 128">
  <defs>
    <style>
      .cls-1 {
        fill: #ededed;
        opacity: .15;
        stroke-width: 0px;
      }
    </style>
  </defs>
  <path id="wave_shadow" class="cls-1" d="M1432.9,114.75c-42.7,0-63.9-23.3-84.4-45.9-19.3-21.2-37.5-41.2-74-41.2s-54.7,20-74,41.2c-20.5,22.6-41.7,45.9-84.4,45.9s-63.9-23.3-84.4-45.9c-19.3-21.2-37.5-41.2-74-41.2s-54.7,20-74,41.2c-20.5,22.6-41.7,45.9-84.4,45.9s-63.9-23.3-84.4-45.9c-19.3-21.2-37.5-41.2-74-41.2s-54.7,20-74,41.2c-20.5,22.6-41.7,45.9-84.4,45.9s-63.9-23.3-84.4-45.9c-19.3-21.2-37.5-41.2-74-41.2s-54.7,20-74,41.2c-20.5,22.6-41.8,45.9-84.6,45.9s-63.9-23.3-84.4-45.8C61.9,47.65,43.7,27.55,7.1,27.55c-3.9,0-7.1-3.2-7.1-7.1s3.2-7.2,7.1-7.2c42.8,0,64,23.3,84.6,45.9,19.3,21.2,37.5,41.2,74,41.2s54.8-20.1,74.2-41.3c20.4-22.5,41.6-45.8,84.3-45.8s63.9,23.3,84.4,45.9c19.3,21.2,37.5,41.2,74,41.2s54.7-20,74-41.2c20.5-22.6,41.7-45.9,84.4-45.9s63.9,23.3,84.4,45.9c19.3,21.2,37.5,41.2,74,41.2s54.7-20,74-41.2c20.4-22.6,41.6-45.9,84.4-45.9s63.9,23.3,84.4,45.9c19.3,21.2,37.5,41.3,74,41.3s54.7-20,74-41.2c20.5-22.6,41.7-45.9,84.4-45.9s63.9,23.3,84.4,45.9c19.3,21.2,37.5,41.2,74,41.2,3.9,0,7.1,3.2,7.1,7.1s-3.3,7.2-7.2,7.2Z"/>
</svg>